HIERARCHY
ROOT Root
{
  OFFSET 0.0 0.0 0.0
  CHANNELS 6 Xposition Yposition Zposition Zrotation Yrotation Xrotation
  JOINT Hips
  {
    OFFSET 0.0 100.0 0.0
    CHANNELS 6 Xposition Yposition Zposition Zrotation Yrotation Xrotation
    JOINT Spine1
    {
      OFFSET -0.013727 5.003763 -0.053727
      CHANNELS 3 Zrotation Yrotation Xrotation
      JOINT Spine2
      {
        OFFSET -0.0 7.125301 -0.029825
        CHANNELS 3 Zrotation Yrotation Xrotation
        JOINT Chest
        {
          OFFSET -1e-06 7.550063 -0.815971
          CHANNELS 3 Zrotation Yrotation Xrotation
          JOINT Neck1
          {
            OFFSET -0.181677 26.311295 -0.553348
            CHANNELS 3 Zrotation Yrotation Xrotation
            JOINT Neck2
            {
              OFFSET -3e-06 7.709397 2.302585
              CHANNELS 3 Zrotation Yrotation Xrotation
              JOINT Head
              {
                OFFSET -5e-06 6.128916 1.953709
                CHANNELS 3 Zrotation Yrotation Xrotation
                JOINT HeadEnd
                {
                  OFFSET 0.003598 16.065403 -1.835379
                  CHANNELS 3 Zrotation Yrotation Xrotation
                }
                JOINT Jaw
                {
                  OFFSET 0.002637 0.475592 3.094941
                  CHANNELS 3 Zrotation Yrotation Xrotation
                }
                JOINT LeftEye
                {
                  OFFSET 3.206381 5.380205 7.586883
                  CHANNELS 3 Zrotation Yrotation Xrotation
                }
                JOINT RightEye
                {
                  OFFSET -3.22244 5.361869 7.558234
                  CHANNELS 3 Zrotation Yrotation Xrotation
                }
              }
            }
          }
          JOINT LeftShoulder
          {
            OFFSET 1.621652 23.237164 5.113413
            CHANNELS 3 Zrotation Yrotation Xrotation
            JOINT LeftArm
            {
              OFFSET 14.919846 2e-06 -5.502326
              CHANNELS 3 Zrotation Yrotation Xrotation
              JOINT LeftForeArm
              {
                OFFSET 28.739307 0.0 -0.002588
                CHANNELS 3 Zrotation Yrotation Xrotation
                JOINT LeftHand
                {
                  OFFSET 27.093981 -1e-06 0.002609
                  CHANNELS 3 Zrotation Yrotation Xrotation
                  JOINT LeftHandThumb1
                  {
                    OFFSET 2.276482 -1.392045 3.191413
                    CHANNELS 3 Zrotation Yrotation Xrotation
                    JOINT LeftHandThumb2
                    {
                      OFFSET 4.012836 -1.828127 1.641654
                      CHANNELS 3 Zrotation Yrotation Xrotation
                      JOINT LeftHandThumb3
                      {
                        OFFSET 2.798515 0.0 -3e-06
                        CHANNELS 3 Zrotation Yrotation Xrotation
                        JOINT LeftHandThumbEnd
                        {
                          OFFSET 3.180793 -4e-06 4e-06
                          CHANNELS 3 Zrotation Yrotation Xrotation
                        }
                      }
                    }
                  }
                  JOINT LeftHandIndex1
                  {
                    OFFSET 3.247555 -0.531998 2.296169
                    CHANNELS 3 Zrotation Yrotation Xrotation
                    JOINT LeftHandIndex2
                    {
                      OFFSET 6.364578 0.01206 0.1786
                      CHANNELS 3 Zrotation Yrotation Xrotation
                      JOINT LeftHandIndex3
                      {
                        OFFSET 3.662364 0.0 0.0
                        CHANNELS 3 Zrotation Yrotation Xrotation
                        JOINT LeftHandIndex4
                        {
                          OFFSET 2.329242 4e-06 4e-06
                          CHANNELS 3 Zrotation Yrotation Xrotation
                          JOINT LeftHandIndexEnd
                          {
                            OFFSET 2.759615 -0.180537 -0.113024
                            CHANNELS 3 Zrotation Yrotation Xrotation
                          }
                        }
                      }
                    }
                  }
                  JOINT LeftHandMiddle1
                  {
                    OFFSET 3.163495 0.240981 1.000332
                    CHANNELS 3 Zrotation Yrotation Xrotation
                    JOINT LeftHandMiddle2
                    {
                      OFFSET 6.19078 -0.259278 -1.002548
                      CHANNELS 3 Zrotation Yrotation Xrotation
                      JOINT LeftHandMiddle3
                      {
                        OFFSET 4.35652 -4e-06 -1e-06
                        CHANNELS 3 Zrotation Yrotation Xrotation
                        JOINT LeftHandMiddle4
                        {
                          OFFSET 2.996877 -8e-06 0.0
                          CHANNELS 3 Zrotation Yrotation Xrotation
                          JOINT LeftHandMiddleEnd
                          {
                            OFFSET 2.304287 -0.294569 -0.031741
                            CHANNELS 3 Zrotation Yrotation Xrotation
                          }
                        }
                      }
                    }
                  }
                  JOINT LeftHandRing1
                  {
                    OFFSET 2.882643 -0.053652 -0.322543
                    CHANNELS 3 Zrotation Yrotation Xrotation
                    JOINT LeftHandRing2
                    {
                      OFFSET 5.854541 -0.486202 -1.373841
                      CHANNELS 3 Zrotation Yrotation Xrotation
                      JOINT LeftHandRing3
                      {
                        OFFSET 4.350578 0.0 3e-06
                        CHANNELS 3 Zrotation Yrotation Xrotation
                        JOINT LeftHandRing4
                        {
                          OFFSET 2.651321 7e-06 2e-06
                          CHANNELS 3 Zrotation Yrotation Xrotation
                          JOINT LeftHandRingEnd
                          {
                            OFFSET 1.936105 0.077687 -7.1e-05
                            CHANNELS 3 Zrotation Yrotation Xrotation
                          }
                        }
                      }
                    }
                  }
                  JOINT LeftHandPinky1
                  {
                    OFFSET 2.8655 -0.310005 -1.600378
                    CHANNELS 3 Zrotation Yrotation Xrotation
                    JOINT LeftHandPinky2
                    {
                      OFFSET 5.087849 -1.331141 -1.77123
                      CHANNELS 3 Zrotation Yrotation Xrotation
                      JOINT LeftHandPinky3
                      {
                        OFFSET 3.070974 4e-06 0.0
                        CHANNELS 3 Zrotation Yrotation Xrotation
                        JOINT LeftHandPinky4
                        {
                          OFFSET 1.549672 0.0 1e-06
                          CHANNELS 3 Zrotation Yrotation Xrotation
                          JOINT LeftHandPinkyEnd
                          {
                            OFFSET 1.944893 -0.157802 0.057219
                            CHANNELS 3 Zrotation Yrotation Xrotation
                          }
                        }
                      }
                    }
                  }
                }
              }
            }
          }
          JOINT RightShoulder
          {
            OFFSET -1.380118 23.180309 5.214158
            CHANNELS 3 Zrotation Yrotation Xrotation
            JOINT RightArm
            {
              OFFSET -15.037196 1.2e-05 -5.545604
              CHANNELS 3 Zrotation Yrotation Xrotation
              JOINT RightForeArm
              {
                OFFSET -28.736639 2e-06 -0.002597
                CHANNELS 3 Zrotation Yrotation Xrotation
                JOINT RightHand
                {
                  OFFSET -27.133619 -0.0 0.002613
                  CHANNELS 3 Zrotation Yrotation Xrotation
                  JOINT RightHandThumb1
                  {
                    OFFSET -2.274032 -1.383988 3.163127
                    CHANNELS 3 Zrotation Yrotation Xrotation
                    JOINT RightHandThumb2
                    {
                      OFFSET -4.011429 -1.827466 1.640914
                      CHANNELS 3 Zrotation Yrotation Xrotation
                      JOINT RightHandThumb3
                      {
                        OFFSET -2.794935 -4e-06 -3e-06
                        CHANNELS 3 Zrotation Yrotation Xrotation
                        JOINT RightHandThumbEnd
                        {
                          OFFSET -3.183852 4e-06 1e-06
                          CHANNELS 3 Zrotation Yrotation Xrotation
                        }
                      }
                    }
                  }
                  JOINT RightHandIndex1
                  {
                    OFFSET -3.253266 -0.520057 2.282866
                    CHANNELS 3 Zrotation Yrotation Xrotation
                    JOINT RightHandIndex2
                    {
                      OFFSET -6.341917 0.012471 0.178266
                      CHANNELS 3 Zrotation Yrotation Xrotation
                      JOINT RightHandIndex3
                      {
                        OFFSET -3.654871 -8e-06 -0.0
                        CHANNELS 3 Zrotation Yrotation Xrotation
                        JOINT RightHandIndex4
                        {
                          OFFSET -2.327586 0.0 1e-06
                          CHANNELS 3 Zrotation Yrotation Xrotation
                          JOINT RightHandIndexEnd
                          {
                            OFFSET -2.76179 -0.180656 -0.113078
                            CHANNELS 3 Zrotation Yrotation Xrotation
                          }
                        }
                      }
                    }
                  }
                  JOINT RightHandMiddle1
                  {
                    OFFSET -3.168106 0.246593 1.00103
                    CHANNELS 3 Zrotation Yrotation Xrotation
                    JOINT RightHandMiddle2
                    {
                      OFFSET -6.180828 -0.258836 -1.000895
                      CHANNELS 3 Zrotation Yrotation Xrotation
                      JOINT RightHandMiddle3
                      {
                        OFFSET -4.348901 0.0 -0.0
                        CHANNELS 3 Zrotation Yrotation Xrotation
                        JOINT RightHandMiddle4
                        {
                          OFFSET -3.00024 -4e-06 -2e-06
                          CHANNELS 3 Zrotation Yrotation Xrotation
                          JOINT RightHandMiddleEnd
                          {
                            OFFSET -2.30252 -0.29437 -0.031706
                            CHANNELS 3 Zrotation Yrotation Xrotation
                          }
                        }
                      }
                    }
                  }
                  JOINT RightHandRing1
                  {
                    OFFSET -2.88569 -0.067952 -0.308858
                    CHANNELS 3 Zrotation Yrotation Xrotation
                    JOINT RightHandRing2
                    {
                      OFFSET -5.854198 -0.48613 -1.373731
                      CHANNELS 3 Zrotation Yrotation Xrotation
                      JOINT RightHandRing3
                      {
                        OFFSET -4.33881 -4e-06 -0.0
                        CHANNELS 3 Zrotation Yrotation Xrotation
                        JOINT RightHandRing4
                        {
                          OFFSET -2.654903 -4e-06 4e-06
                          CHANNELS 3 Zrotation Yrotation Xrotation
                          JOINT RightHandRingEnd
                          {
                            OFFSET -1.933568 0.077527 -5.2e-05
                            CHANNELS 3 Zrotation Yrotation Xrotation
                          }
                        }
                      }
                    }
                  }
                  JOINT RightHandPinky1
                  {
                    OFFSET -2.866425 -0.342796 -1.584145
                    CHANNELS 3 Zrotation Yrotation Xrotation
                    JOINT RightHandPinky2
                    {
                      OFFSET -5.091371 -1.332055 -1.772385
                      CHANNELS 3 Zrotation Yrotation Xrotation
                      JOINT RightHandPinky3
                      {
                        OFFSET -3.062664 -4e-06 1e-06
                        CHANNELS 3 Zrotation Yrotation Xrotation
                        JOINT RightHandPinky4
                        {
                          OFFSET -1.546529 4e-06 -2e-06
                          CHANNELS 3 Zrotation Yrotation Xrotation
                          JOINT RightHandPinkyEnd
                          {
                            OFFSET -1.945119 -0.157718 0.057211
                            CHANNELS 3 Zrotation Yrotation Xrotation
                          }
                        }
                      }
                    }
                  }
                }
              }
            }
          }
        }
      }
    }
    JOINT LeftLeg
    {
      OFFSET 10.043214 -8.434526 2.595655
      CHANNELS 3 Zrotation Yrotation Xrotation
      JOINT LeftShin
      {
        OFFSET -1e-06 -43.221752 -0.802913
        CHANNELS 3 Zrotation Yrotation Xrotation
        JOINT LeftFoot
        {
          OFFSET 1e-06 -42.155094 -3.481523
          CHANNELS 3 Zrotation Yrotation Xrotation
          JOINT LeftToeBase
          {
            OFFSET 0.0 -5.059472 13.231529
            CHANNELS 3 Zrotation Yrotation Xrotation
            JOINT LeftToeEnd
            {
              OFFSET -0.009607 -1.647619 6.513017
              CHANNELS 3 Zrotation Yrotation Xrotation
            }
          }
        }
      }
    }
    JOINT RightLeg
    {
      OFFSET -10.047278 -8.29526 2.620317
      CHANNELS 3 Zrotation Yrotation Xrotation
      JOINT RightShin
      {
        OFFSET 1e-06 -43.362206 -0.805556
        CHANNELS 3 Zrotation Yrotation Xrotation
        JOINT RightFoot
        {
          OFFSET 2e-06 -42.117393 -3.478398
          CHANNELS 3 Zrotation Yrotation Xrotation
          JOINT RightToeBase
          {
            OFFSET -0.0 -5.079609 13.284196
            CHANNELS 3 Zrotation Yrotation Xrotation
            JOINT RightToeEnd
            {
              OFFSET 0.009532 -1.634378 6.460591
              CHANNELS 3 Zrotation Yrotation Xrotation
            }
          }
        }
      }
    }
  }
}
MOTION
Frames: 4
Frame Time: 0.03333333333333333
0.0 0.0 0.0 0.0 -0.0 0.0 -2.128759 96.35183 388.957794 -1.635032 -2.048201 -4.668539 -1.946782 -1.280782 5.433452 -0.504939 -2.971348 -3.423337 -0.062281 -4.992136 9.170135 3.011379 2.199805 0.603941 -0.324199 1.290711 -3.551151 1.886904 -0.056424 -14.0752 7.7e-05 -2.2e-05 6e-06 -0.037644 -0.166039 -0.000624 0.58584 -3.926019 -10.687345 -0.663013 3.595351 -10.71531 2.907488 -6.898699 15.75027 -62.714523 -5.120173 4.901188 -176.982544 -57.069565 177.320526 -9.483696 2.643579 -24.679993 -5.882102 9.861284 0.702589 -10.936872 -0.360576 7.156206 0.0 8.774824 -2e-06 -16.644838 18.290468 5.936432 -1.844032 2.498504 -2.507277 -10.163595 4.678943 4.621109 -20.976017 -3e-06 3e-06 -21.226282 2.451696 -3.593999 1e-06 -6e-06 -0.0 -1.362682 2.240798 -0.746324 -21.334906 0.584909 3.008324 -13.82121 -3e-06 3e-06 -23.887161 -0.249078 -0.839482 -60.751049 2.364548 -1.637752 -0.294026 1.679687 0.833256 -14.218203 0.093214 1.300581 -34.212036 -0.287563 0.967173 -20.033209 0.964537 1.212844 0.0 0.0 -0.0 -3.440386 0.788233 0.501656 -15.928183 -3.16731 2.999709 -6.338823 -1e-06 2e-06 -18.123444 3.648182 -4.905669 -4e-06 0.0 -2e-06 3.517594 -0.935391 19.360659 63.906338 -13.793409 14.38281 178.813553 74.11203 177.739197 -16.076891 -1.197611 -14.887169 2.243538 -5.255033 -3.180155 14.28288 -0.826592 6.952497 -3e-06 -12.690598 0.0 16.578951 -17.899864 2.150367 1.665666 -1.95592 -2.878297 4.727795 -4.170586 4.993921 11.020518 4e-06 -1e-06 12.109043 -3.735713 -2.866782 0.0 -0.0 0.0 1.291985 -1.928548 -1.498088 14.800118 0.567468 3.865605 14.24256 -1.341735 -6.660653 19.631954 0.143926 -0.648243 50.141655 -0.445688 -6.200284 0.353028 -1.511149 -0.03194 20.222776 3.684309 2.316629 18.787258 6e-06 0.0 10.751619 -0.479868 1.397905 -2e-06 0.0 -0.0 3.273804 0.305948 -0.580111 21.486799 11.830369 2.266132 8.162921 2e-06 -0.0 18.399069 -3.798982 -4.94057 1e-06 1e-06 -1e-06 1.782083 13.841537 8.746738 0.031638 -0.472229 29.188295 1.264616 -2.398145 -16.704912 1.903513 -1.970697 -10.233234 -0.0 -0.0 2e-06 0.92707 -5.38203 -31.630377 -0.138573 -0.347074 73.419601 0.007236 -3.869295 -3.779866 -1.392864 0.800259 -3.324769 -0.0 0.0 -3e-06 
0.0 0.0 0.0 0.0 -0.0 0.0 -2.008107 98.254051 397.6586 -2.423546 -2.204606 -3.294613 -1.350476 -1.411061 3.991981 -0.29588 -3.808661 -3.861115 0.912141 -5.778038 8.611569 2.928627 2.242851 1.281853 -0.205524 2.055546 -3.583865 1.285926 0.794993 -12.066501 7.7e-05 -2.3e-05 6e-06 -0.031006 -0.138057 0.020634 0.584393 -3.893409 -10.693171 -0.646672 3.616647 -10.715922 4.843593 -7.698307 15.00983 -62.662254 -3.968397 4.720787 -178.13118 -51.446083 178.343063 -7.756484 1.519958 -27.145582 -5.882113 9.8613 0.702592 -10.936883 -0.360573 7.156217 -0.0 8.774838 -0.0 -16.8382 18.416889 5.759779 -1.844036 2.498507 -2.507282 -10.163611 4.678953 4.621118 -20.976042 -2e-06 1e-06 -21.226307 2.451701 -3.594007 -0.0 -6e-06 -0.0 -1.362685 2.240802 -0.746325 -21.334936 0.584913 3.008329 -13.821229 -1e-06 2e-06 -23.887192 -0.249076 -0.839485 -60.667934 2.420975 -1.781521 -0.294026 1.679689 0.833257 -14.218224 0.093217 1.300584 -34.212086 -0.287559 0.967172 -20.033236 0.964541 1.212844 -0.0 -0.0 -0.0 -3.440394 0.788235 0.501657 -15.928203 -3.167313 2.999713 -6.338833 -0.0 2e-06 -18.123466 3.648191 -4.905678 -4e-06 0.0 -2e-06 3.187645 -1.739962 19.291159 63.239376 -16.661343 14.432847 178.346298 71.516823 177.66275 -13.865335 -1.316183 -16.033903 2.243543 -5.255044 -3.180161 14.282897 -0.826595 6.952508 -2e-06 -12.690618 -0.0 16.518776 -17.642244 2.233155 1.665668 -1.955924 -2.878302 4.7278 -4.170592 4.993929 11.020533 2e-06 -3e-06 12.109059 -3.735719 -2.866789 -1e-06 -0.0 0.0 1.291986 -1.928552 -1.498091 14.800138 0.56747 3.86561 14.24258 -1.341737 -6.660666 19.631979 0.143931 -0.648247 50.179523 -0.53018 -6.124708 0.353029 -1.511153 -0.03194 20.222803 3.684316 2.31663 18.787287 6e-06 -2e-06 10.751635 -0.479869 1.397907 -0.0 0.0 -0.0 3.273809 0.305948 -0.580112 21.486828 11.830391 2.266135 8.16293 1e-06 -0.0 18.399094 -3.798989 -4.940581 2e-06 1e-06 -0.0 3.652361 13.509203 14.103567 0.034001 -0.429942 24.963434 0.772188 -3.811236 -5.442689 2.08778 -1.850544 -19.457462 0.0 0.0 2e-06 3.451582 -5.60413 -32.841164 -0.073187 -0.147701 57.678238 4.0042 -2.121472 -2.224628 -1.418049 0.838657 -3.442588 -0.0 0.0 -1e-06 
0.0 0.0 0.0 0.0 -0.0 0.0 -1.701693 99.637199 406.743958 -2.067304 -2.244904 -2.294469 -1.114975 -1.342273 2.727689 -0.189839 -4.372108 -4.256001 1.285782 -6.179224 8.248779 2.949705 2.388446 1.568544 -0.230078 2.373306 -3.560975 0.864657 1.241072 -10.366255 7.7e-05 -2.2e-05 6e-06 -0.021206 -0.068142 0.049153 0.58317 -3.820616 -10.658827 -0.625217 3.683122 -10.687119 5.892839 -7.928187 14.630743 -62.759617 -2.680866 5.829432 -179.102951 -48.009293 178.949326 -6.807756 1.243362 -27.832478 -5.882103 9.861283 0.702588 -10.936869 -0.360576 7.156205 1e-06 8.774821 -1e-06 -16.894001 18.33633 5.648715 -1.844029 2.498504 -2.507278 -10.163595 4.678942 4.621109 -20.976021 -4e-06 0.0 -21.226284 2.451694 -3.594001 -0.0 -6e-06 -0.0 -1.362682 2.240798 -0.746324 -21.334911 0.584908 3.008323 -13.821211 -3e-06 1e-06 -23.887165 -0.24908 -0.839483 -60.636543 2.416085 -1.7524 -0.294024 1.679686 0.833256 -14.218207 0.093214 1.30058 -34.212036 -0.287565 0.96717 -20.033209 0.964535 1.212844 2e-06 0.0 -0.0 -3.440388 0.788232 0.501656 -15.928181 -3.167309 2.999708 -6.338824 -1e-06 1e-06 -18.123444 3.64818 -4.90567 -4e-06 0.0 -2e-06 2.747194 -1.980067 19.340124 63.604744 -18.215368 13.893598 178.263596 70.522591 178.040527 -12.33199 -1.707892 -15.818921 2.243541 -5.255039 -3.180159 14.282889 -0.826594 6.952505 -2e-06 -12.690609 -1e-06 16.292109 -17.524973 2.391587 1.665666 -1.955922 -2.878299 4.727798 -4.170588 4.993925 11.020524 2e-06 -1e-06 12.109051 -3.735718 -2.866785 0.0 -0.0 0.0 1.291986 -1.92855 -1.498089 14.800127 0.567467 3.865609 14.242569 -1.341737 -6.66066 19.631966 0.143925 -0.648245 50.038723 -0.578409 -6.066676 0.353029 -1.511152 -0.03194 20.222788 3.684311 2.316631 18.78727 5e-06 0.0 10.751629 -0.479869 1.397907 1e-06 1e-06 -0.0 3.273807 0.305948 -0.580111 21.486813 11.83038 2.266136 8.162928 1e-06 0.0 18.399084 -3.798988 -4.940576 2e-06 1e-06 0.0 3.79681 12.492887 16.918169 -0.098422 -0.208236 24.543264 0.113516 -4.179581 6.45 2.169602 -1.682013 -23.213436 0.0 0.0 4e-06 4.365026 -6.184561 -31.616205 0.056361 -0.036471 40.621117 7.935175 0.151689 0.291411 -1.436894 0.917191 -3.992077 -0.0 0.0 -1e-06 
0.0 0.0 0.0 0.0 -0.0 0.0 -1.353049 100.048325 415.612885 -0.715928 -1.852634 -2.185086 -1.307324 -1.179558 2.150925 -0.235061 -4.544464 -4.480653 1.139925 -6.262345 8.186472 3.147687 2.533236 1.514803 -0.330539 2.259046 -3.536342 0.511009 1.331157 -9.226758 7.7e-05 -2.3e-05 6e-06 -0.007742 0.025747 0.035371 0.606343 -3.723062 -10.652778 -0.621719 3.773093 -10.69198 6.413627 -7.923328 14.68576 -63.006161 -1.566158 7.928025 -179.621552 -46.76202 179.195007 -6.685727 1.503025 -27.520159 -5.88211 9.861292 0.70259 -10.936877 -0.360575 7.156209 -0.0 8.77483 -1e-06 -16.723528 18.307489 5.62495 -1.844033 2.498505 -2.507279 -10.163602 4.678946 4.62111 -20.97603 -4e-06 2e-06 -21.226294 2.451698 -3.594002 -0.0 -6e-06 -0.0 -1.362683 2.240799 -0.746324 -21.334919 0.584909 3.008324 -13.821218 -2e-06 2e-06 -23.887178 -0.249079 -0.839483 -60.40905 2.388499 -1.624783 -0.294024 1.679688 0.833256 -14.218211 0.093215 1.300581 -34.212059 -0.287564 0.96717 -20.033222 0.964536 1.212844 1e-06 0.0 0.0 -3.44039 0.788233 0.501656 -15.928192 -3.167311 2.999709 -6.338829 -1e-06 1e-06 -18.123453 3.648184 -4.905673 -4e-06 0.0 -2e-06 2.600469 -1.949526 19.521503 64.259354 -18.56588 13.11709 178.930969 70.178398 178.923248 -11.408181 -1.726566 -14.792212 2.243543 -5.25504 -3.18016 14.282896 -0.826597 6.952505 -2e-06 -12.690609 1e-06 16.013788 -17.600925 2.575515 1.665667 -1.955924 -2.878301 4.7278 -4.17059 4.993927 11.020531 1e-06 -3e-06 12.109058 -3.735718 -2.866788 -1e-06 -0.0 0.0 1.291986 -1.928549 -1.498091 14.800134 0.567468 3.865608 14.24258 -1.341737 -6.660664 19.631975 0.143926 -0.648248 50.049786 -0.558703 -6.056893 0.35303 -1.511151 -0.03194 20.222801 3.684311 2.316629 18.787283 5e-06 -3e-06 10.751633 -0.479869 1.397905 -0.0 1e-06 -0.0 3.273808 0.305946 -0.580111 21.48682 11.830382 2.266132 8.16293 2e-06 -1e-06 18.399092 -3.798985 -4.940578 3e-06 1e-06 -0.0 2.109111 10.330245 16.728424 -0.147118 -0.040316 30.509912 -1.371789 -3.507849 14.237097 2.000515 -1.661463 -15.99377 -0.0 -0.0 -1e-06 3.909999 -6.733993 -28.818235 0.143298 0.032686 26.119625 12.362168 2.223821 2.533961 -1.387734 1.008734 -4.269792 0.0 -0.0 -1e-06 
